<?xml version="1.0" encoding="UTF-8" standalone="no"?>
<!DOCTYPE svg PUBLIC "-//W3C//DTD SVG 1.1//EN" "http://www.w3.org/Graphics/SVG/1.1/DTD/svg11.dtd">
<svg width="100%" height="100%" viewBox="0 0 6424 3763" version="1.1" xmlns="http://www.w3.org/2000/svg" xmlns:xlink="http://www.w3.org/1999/xlink" xml:space="preserve" xmlns:affinity="https://www.affinity.studio/" style="fill-rule:evenodd;clip-rule:evenodd;stroke-linejoin:round;stroke-miterlimit:2;">
    <g transform="matrix(1,0,0,1,-112867.368336,-70233.71729)">
        <g transform="matrix(16.473285,0,0,16.473285,107650.595492,63768.818217)">
            <path d="M541.56,503.643C541.443,502.722 540.885,491.371 531.022,479.892C517.496,464.15 470.745,453.784 460.599,504.256C445.884,504.657 444.751,505.049 443.451,505.499C439.114,500.009 394.587,476.974 396.047,470.397C397.49,463.9 408.903,472.462 407.144,465.557C406.778,464.12 400.887,440.991 410.623,447.342C412.613,448.64 421.302,491.194 424.674,481.603C426.112,477.513 409.684,423.241 421.397,432.649C429.035,438.784 429.181,481.071 438.795,491.206C447.154,500.016 453.598,502.681 454.962,490.553C456.715,474.964 415.228,419.51 430.47,420.861C433.471,421.128 437.523,431.981 438.758,426.645C444.87,400.242 453.685,406.787 454.133,408.628C455.494,414.235 437.985,451.034 447.35,448.055C450.826,446.95 462.47,390.897 470.243,402.634C473.449,407.475 453.756,450.932 454.474,459.501C454.592,460.917 455.39,470.434 461.204,475.93C462.685,477.33 472.56,470.722 473.425,458.496C473.825,452.844 473.398,438.834 475.907,413.536C476.273,409.848 475.873,396.384 481.613,398.244C485.306,399.441 484.157,412.935 488.934,406.961C503.691,388.507 506.926,392.348 508.127,393.773C515.256,402.239 476.898,425.206 483.519,431.475C487.763,435.493 519.262,395.081 526.396,397.805C535.357,401.226 525.634,407.199 507.857,421.91C483.657,441.936 483.215,443.768 482.552,446.513C479,461.228 484.3,461.054 485.483,461.015C501.507,460.486 507.224,440.698 529.895,408.762C530.339,408.137 537.13,395.433 541.167,399.818C546.902,406.048 519.32,425.113 539.404,419.122C543.481,417.906 563.093,408.238 564.202,416.501C565.162,423.66 517.412,425.442 524.027,432.846C527.292,436.5 585.926,416.203 579.511,430.505C578.463,432.842 577.575,431.854 548.414,438.122C528.502,442.402 516.225,440.469 509.273,455.417C507.601,459.012 519.764,466.13 533.611,458.703C537.639,456.543 580.556,433.523 585.454,434.672C594.541,436.803 579.248,444.774 578.344,445.245C568.27,450.496 605.228,450.957 602.019,462.352C600.365,468.229 554.201,445.273 558.245,456.646C558.82,458.264 608.72,473.06 609.766,475.352C617.912,493.198 554.02,458.99 541.624,463.814C534.382,466.632 531.839,468.352 536.738,474.305C546.332,485.963 549.203,480.78 586.527,484.063C589.694,484.342 617.668,484.788 610.199,492.245C607.52,494.92 589.379,491.311 596.216,495.729C603.687,500.557 604.298,502.381 604.583,503.234C599.077,504.533 599.126,504.149 593.455,504.217C593.084,503.898 575.566,485.994 575.474,492.496C575.458,493.64 576.1,493.256 584.448,503.625C579.539,504.503 578.223,503.117 577.559,506.481C569.714,503.437 568.72,493.173 556.443,490.859C547.108,489.099 548.309,493.847 549.701,503.288C549.187,503.372 548.753,504.07 541.56,503.643Z" style="fill:rgb(70,173,82);"/>
            <path d="M637.499,576.538C633.52,578.271 631.976,577.811 616.498,577.68C610.073,577.625 607.524,556.66 602.529,556.237C594.02,555.517 597.04,560.017 596.938,568.509C596.934,568.859 598.45,577.569 593.502,577.393C580.863,576.945 578.066,577.862 577.903,575.378C576.574,555.077 578.48,531.664 577.559,506.481C578.223,503.117 579.539,504.503 584.448,503.625C587.636,504.377 587.619,504.06 593.455,504.217C599.126,504.149 599.077,504.533 604.583,503.234C613.502,505.617 636.762,499.734 635.61,532.506C635.196,544.292 628.111,549.921 626.832,550.937C622.961,554.012 631.143,565.273 634.223,574.755C634.777,576.46 634.947,574.337 636.431,573.478L637.499,576.538ZM615.131,527.615C612.442,522.096 606.589,523.053 599.476,523.179C595.747,523.245 595.483,536.27 599.507,536.317C607.419,536.41 616.509,537.92 615.131,527.615Z" style="fill:rgb(4,4,4);"/>
            <path d="M460.599,504.256C466.206,505.57 463.749,507.732 463.76,513.499C463.784,526.431 463.746,526.374 463.749,527.493C463.757,530.597 467.044,530.37 481.499,530.478C485.109,530.505 483.447,528.436 484.12,506.449C484.243,502.46 503.359,504.493 503.442,504.569C504.626,505.644 504.046,563.848 503.466,573.504C503.633,576.543 503.589,576.49 503.616,576.749C486.659,577.704 484.416,576.508 484.372,574.509C483.881,552.477 485.229,551.017 482.456,550.778C464.174,549.202 463.82,551.016 463.656,552.517C463.083,557.774 465.256,576.935 461.491,577.401C454.909,578.216 446.84,577.217 445.576,577.06C442.369,576.663 444.374,545.001 443.451,505.499C444.751,505.049 445.884,504.657 460.599,504.256Z" style="fill:rgb(4,4,4);"/>
            <path d="M413.672,502.263C416.965,505.244 416.664,505.588 436.515,561.494C439.548,570.038 442.608,576.625 439.525,576.712C421.409,577.225 420.968,576.98 420.416,575.552C418.339,570.178 419.945,568.001 415.491,567.922C394.363,567.549 393.834,567.685 393.2,569.356C391.323,574.301 392.85,576.6 387.501,576.626C375.041,576.686 369.773,577.013 370.857,573.594C392.767,504.537 392.713,504.515 393.242,503.318C393.731,503.444 395.723,503.96 399.545,503.368C401.643,503.903 401.548,504.336 403.691,503.795C406.714,503.756 406.589,503.765 409.49,503.72C412.404,503.676 412.091,502.814 413.672,502.263ZM404.924,531.876C400.294,548.349 397.491,550.628 401.446,550.777C411.424,551.153 411.82,550.29 411.613,549.497C411.338,548.442 411.138,548.527 407.381,536.542C406.217,532.827 406.928,531.968 404.924,531.876Z" style="fill:rgb(4,4,4);"/>
            <path d="M541.56,503.643C548.753,504.07 549.187,503.372 549.701,503.288C551.062,504.965 576.153,575.053 575.469,576.438C575.251,576.878 556.931,576.824 556.457,576.734C553.359,576.147 554.539,574.913 552.499,569.5C551.632,567.198 543.619,567.92 537.493,567.891C530.991,567.861 528.91,565.427 526.833,571.609C523.854,580.476 519.959,575.08 503.616,576.749C503.589,576.49 503.633,576.543 503.466,573.504C508.246,575.718 505.999,571.552 507.451,566.485C508.811,561.741 517.151,532.646 525.906,507.623C527.297,503.647 528.386,504.024 541.56,503.643ZM540.498,550.841C540.511,550.841 546.208,551.632 545.936,549.545C545.608,547.034 541.53,534.947 541.106,533.691C539.845,529.955 538.241,536.072 538.16,536.38C537.644,538.347 534.674,546.935 534.258,548.455C533.095,552.706 536.109,550.521 540.498,550.841Z" style="fill:rgb(4,4,4);"/>
            <path d="M636.431,573.478C640.786,558.097 657.469,505.725 657.559,505.526C658.95,502.428 680.577,504.078 680.685,504.123C682.534,504.882 682.284,505.313 689.707,527.429C690.317,529.247 706.67,574.765 706.586,575.514C706.417,577.037 705.818,577.473 687.467,576.736C684.631,576.622 685.714,575.304 683.553,569.476C682.992,567.964 682.581,567.798 661.513,567.852C656.718,567.865 658.306,570.088 656.715,574.594C656.039,576.51 655.458,576.589 637.499,576.538L636.431,573.478ZM666.801,543.596C666.109,545.791 661.964,550.74 669.497,550.863C671.506,550.895 677.78,551.918 676.702,548.45C671.856,532.851 671.677,531.814 670.52,532.539C669.729,533.034 669.903,533.201 666.801,543.596Z" style="fill:rgb(4,4,4);"/>
            <path d="M344.486,559.089C345.159,559.034 352.496,558.434 352.514,556.501C352.586,549.033 324.892,555.05 318.23,535.591C309.602,510.391 338.398,492.881 370.292,509.809C371.537,510.47 372.256,511.319 364.302,526.385C362.457,529.88 361.641,527.08 358.238,524.961C347.967,518.563 338.442,523.296 337.587,524.551C332.6,531.868 364.295,526.754 370.523,546.492C383.981,589.142 312.819,578.993 317.72,569.594C325.371,554.921 325.812,553.463 328.307,554.867C336.988,559.756 337.295,559.066 344.486,559.089Z" style="fill:rgb(4,4,4);"/>
            <path d="M362.501,619.777C358.31,619.704 356.218,621.793 356.113,617.561C356.045,614.839 355.302,585.013 356.545,583.529C357.626,582.241 380.331,579.794 381.638,592.48C384.604,621.276 374.488,619.683 362.501,619.777ZM361.387,596.5C361.4,607.288 360.603,614.543 363.484,614.638C377.873,615.113 376.766,609.87 376.597,595.496C376.487,586.196 362.033,586.177 361.556,589.512C361.477,590.066 361.543,590.03 361.387,596.5Z" style="fill:rgb(28,153,91);"/>
            <path d="M627.502,582.649C636.757,582.684 636.698,582.678 637.497,582.687C653.963,582.876 650.538,596.303 646.389,599.4C643.763,601.359 649.144,602.545 650.078,607.581C653.164,624.224 625.546,619.924 624.931,619.097C623.299,616.903 624.439,587.273 624.545,584.508C624.628,582.342 625.42,582.849 627.502,582.649ZM635.501,614.791C639.226,614.658 639.206,614.698 639.524,614.647C647.339,613.402 648.646,600.845 631.431,603.177C629.513,603.437 629.776,611.714 629.8,612.468C629.921,616.266 631.725,614.539 635.501,614.791ZM629.768,592.501C629.929,596.166 627.86,598.079 631.54,598.177C632.497,598.202 641.661,598.444 643.369,596.395C645.584,593.737 644.491,587.686 638.49,587.625C637.804,587.618 630.63,587.545 629.98,588.699C629.831,588.965 629.964,588.981 629.768,592.501Z" style="fill:rgb(29,152,92);"/>
            <path d="M504.187,614.617C504.3,615.034 507.669,620.668 501.465,619.644C498.817,619.208 499.585,611.514 494.5,611.532C491.289,611.543 483.187,610.759 482.212,613.365C480.448,618.078 481.493,620.506 476.46,619.682C473.649,619.223 474.944,617.473 486.749,585.604C488.803,580.059 491.88,581.857 493.96,587.322C503.536,612.479 503.351,612.44 504.187,614.617ZM490.502,606.434C493.667,606.298 495.521,607.618 494.966,604.481C494.104,599.611 491.57,593.61 491.185,592.698C489.388,588.442 484.984,604.62 485.263,605.623C485.584,606.778 485.967,606.239 490.502,606.434Z" style="fill:rgb(32,155,93);"/>
            <path d="M408.935,595.54C408.931,597.782 406.07,617.829 418.568,614.811C424.41,613.4 425.19,605.391 422.618,605.147C418.25,604.733 416.037,605.852 416.742,601.549C417.162,598.984 429.408,599.028 429.581,601.481C431.38,626.923 405.011,625.481 403.523,607.499C400.024,565.222 434.023,587.999 428.236,593.211C423.924,597.095 420.155,582.945 411.566,589.591C409.229,591.399 409.108,594.828 408.935,595.54Z" style="fill:rgb(32,152,94);"/>
            <path d="M555.179,601.497C555.162,588.241 554.255,582.771 557.505,582.634C562.018,582.444 560.4,590.478 560.506,596.499C560.564,599.824 568.512,599 573.518,598.857C578.182,598.724 575.886,596.2 576.331,584.466C576.406,582.487 581.578,580.922 581.63,585.495C581.998,617.385 583.008,618.476 580.462,619.423C574.858,621.507 577.25,617.068 576.246,605.55C576.15,604.442 576.006,602.793 562.412,604.124C558.313,604.526 562.716,619.163 558.541,619.782C553.921,620.468 555.151,612.884 555.179,601.497Z" style="fill:rgb(30,154,93);"/>
            <path d="M616.071,600.499C616.055,601.04 619.524,622.718 599.441,619.826C595.333,619.234 590.646,614.192 590.405,610.514C590.109,605.984 589.779,584.295 590.469,583.478C590.919,582.945 595.375,580.999 595.395,585.504C595.451,597.834 592.513,619.593 606.379,614.169C616.478,610.218 605.482,577.375 615.264,582.916C616.451,583.589 616.073,591.406 616.071,600.499Z" style="fill:rgb(30,150,91);"/>
            <path d="M458.968,594.501C458.934,590.08 458.998,590.112 458.851,589.396C458.261,586.536 457.06,587.955 450.475,587.631C448.571,587.537 448.152,584.654 448.814,583.668C449.572,582.538 456.799,582.625 457.498,582.634C471.045,582.798 476.322,581.805 474.642,586.553C473.929,588.566 473.128,587.527 466.524,587.698C463.576,587.774 464.952,589.502 464.403,617.49C464.367,619.366 462.755,619.629 462.528,619.666C457.976,620.408 458.956,617.489 458.968,594.501Z" style="fill:rgb(28,153,93);"/>
            <path d="M518.503,619.841C513.439,619.755 511.096,621.558 511.084,616.498C511.008,584.09 510.871,582.697 513.504,582.642C513.782,582.636 516.367,582.581 516.429,584.511C516.881,598.515 514.934,614.492 518.484,614.596C524.947,614.787 536.865,612.898 534.751,618.608C534.076,620.43 526.21,619.845 518.503,619.841Z" style="fill:rgb(28,152,91);"/>
            <path d="M413.672,502.263C412.091,502.814 412.404,503.676 409.49,503.72C406.589,503.765 406.714,503.756 403.691,503.795C400.082,498.066 383.308,483.873 391.564,481.828C396.576,480.587 413.448,501.935 413.672,502.263Z" style="fill:rgb(31,160,85);"/>
            <path d="M389.445,602.5C389.45,588.16 388.723,582.922 391.518,582.672C396.912,582.19 394.699,585.132 394.719,590.498C394.824,618.185 395.15,619.567 392.515,619.753C388.094,620.066 389.405,611.313 389.445,602.5Z" style="fill:rgb(31,151,93);"/>
            <path d="M439.508,582.658C442.214,582.957 442.371,583.457 442.387,586.503C442.399,588.981 442.482,605.169 442.295,617.48C442.245,620.745 437.365,620.692 437.228,617.547C435.791,584.438 436.922,583.724 439.508,582.658Z" style="fill:rgb(32,149,93);"/>
            <path d="M393.242,503.318C393.251,502.926 393.386,496.448 396.416,499.592C396.688,499.875 397.645,500.868 399.545,503.368C395.723,503.96 393.731,503.444 393.242,503.318Z" style="fill:rgb(49,144,96);"/>
        </g>
    </g>
</svg>
